:SAMPLES-PER-SECOND 30
:FULLY-SPECIFIED
:DEGREES
641
root  -0.388623 40.8342 -0.993757 -169.339 -83.9927 168.303
RightUpLeg  1.92776 -10.1005 -9.4931
RightLeg  5.90565 -1.67751 3.2147
RightFoot  -5.04554 -0.201763 3.03641
RightToes  0.000482159 0.542163 -0.142577
Spine  5.91926 2.08772 6.84563
Spine1  4.22316 4.21749 -7.72443
HEad  10.524 2.19505 -0.997445
LeftShoulder1  1.56 -3.54481 -15.2434
LeftArm  -19.0483 19.5978 -9.90691
LeftForeArm  17.4049 -13.2282 -1.94974
LeftHand  -0.25398 0.0180481 5.50724
RightShoulder  1.85418 4.50899 16.4705
RightArm  -21.6583 -11.7365 8.87241
RightForeArm  -0.333026 10.7765 3.48392
RightHand  -1.24386 3.44234 -16.5526
LeftUpLeg  0.81823 4.61972 0.301374
LeftLeg  4.95423 13.9967 -3.24149
LeftFoot  -6.99471 0.0910908 -1.28878
LeftToes  1.06247e-005 4.65855e-005 -8.18504e-006
642
root  -0.208432 40.8647 -1.06508 -172.625 -83.3505 172.267
RightUpLeg  1.46165 -10.073 -9.06371
RightLeg  4.62219 -0.822445 3.64419
RightFoot  -4.28008 -0.244377 3.49694
RightToes  0.000482159 0.542163 -0.142577
Spine  5.34882 2.4301 7.52373
Spine1  3.15722 4.50959 -7.95828
HEad  9.22504 2.04281 -1.0981
LeftShoulder1  1.167 -2.47248 -12.3746
LeftArm  -21.4011 19.4535 -9.08442
LeftForeArm  17.041 -14.2277 -1.58688
LeftHand  -0.25398 0.0180481 5.50724
RightShoulder  1.53448 3.95465 13.6585
RightArm  -22.1121 -9.86402 6.15291
RightForeArm  -1.96196 10.3336 3.48364
RightHand  -1.33409 3.71973 -17.1996
LeftUpLeg  -0.282057 4.72461 0.567817
LeftLeg  5.22302 14.7037 -2.94087
LeftFoot  -6.84237 0.0733992 -0.821981
LeftToes  1.06247e-005 4.65855e-005 -8.18504e-006
643
root  0.0151705 40.8746 -1.17172 -173.019 -82.6868 172.935
RightUpLeg  0.530709 -9.81103 -8.59857
RightLeg  4.76349 -0.681203 3.55945
RightFoot  -3.94959 -0.198728 2.66115
RightToes  0.000482159 0.542163 -0.142577
Spine  5.59031 2.70539 7.23733
Spine1  1.9076 4.63031 -7.68102
HEad  7.86768 2.14374 -1.06484
LeftShoulder1  0.882004 -1.594 -9.89799
LeftArm  -23.8009 19.1093 -8.13857
LeftForeArm  16.1993 -14.6431 -1.19615
LeftHand  -0.25398 0.0180481 5.50724
RightShoulder  1.26909 3.43673 11.1319
RightArm  -22.6224 -7.83734 3.85358
RightForeArm  -4.01099 9.96291 3.54645
RightHand  -1.48957 4.14507 -18.3255
LeftUpLeg  -0.878362 4.81688 0.718092
LeftLeg  5.27094 15.3489 -2.90692
LeftFoot  -6.6903 0.0694934 -0.702355
LeftToes  1.06247e-005 4.65855e-005 -8.18504e-006
644
root  0.263274 40.8789 -1.29003 -172.527 -82.3829 172.104
RightUpLeg  -0.0966579 -9.65907 -8.33436
RightLeg  5.73571 -0.919294 3.38611
RightFoot  -3.785 -0.145919 1.81886
RightToes  0.000482159 0.542163 -0.142577
Spine  6.54039 2.6993 6.69451
Spine1  0.984159 4.55254 -7.49028
HEad  6.09618 2.34019 -0.721279
LeftShoulder1  0.696597 -1.04708 -7.67325
LeftArm  -26.6362 18.7048 -7.27236
LeftForeArm  15.5325 -14.8224 -0.675952
LeftHand  -0.25398 0.0180481 5.50724
RightShoulder  1.07027 2.97944 9.15134
RightArm  -23.2641 -6.04745 1.97005
RightForeArm  -6.22286 10.0258 3.67106
RightHand  -1.68955 4.78103 -19.4661
LeftUpLeg  -0.804792 4.81947 0.826808
LeftLeg  5.16757 15.6261 -2.95596
LeftFoot  -6.43542 0.081417 -0.857158
LeftToes  1.06247e-005 4.65855e-005 -8.18504e-006
645
root  0.49516 40.878 -1.41085 -171.491 -82.7834 170.488
RightUpLeg  -0.164972 -9.73003 -8.316
RightLeg  6.60531 -1.26453 3.35321
RightFoot  -3.85851 -0.136528 1.67316
RightToes  0.000482159 0.542163 -0.142577
Spine  7.45364 2.38962 6.01333
Spine1  0.651359 4.17532 -7.18619
HEad  4.06234 2.43265 -0.304112
LeftShoulder1  0.598914 -0.814024 -6.06161
LeftArm  -30.0181 18.3289 -6.39898
LeftForeArm  16.0687 -15.3504 -0.240046
LeftHand  -0.25398 0.0180481 5.50724
RightShoulder  0.907915 2.51146 7.56222
RightArm  -24.0803 -4.7318 0.64231
RightForeArm  -7.8862 10.5481 3.77371
RightHand  -1.93944 5.65044 -20.5641
LeftUpLeg  -0.565745 4.74293 0.897136
LeftLeg  5.14325 15.2835 -2.92029
LeftFoot  -6.11147 0.0908214 -0.983024
LeftToes  1.06247e-005 4.65855e-005 -8.18504e-006
646
root  0.687994 40.8724 -1.5372 -169.018 -83.8262 167.653
RightUpLeg  -0.0928612 -9.92476 -8.33187
RightLeg  7.11048 -1.99927 3.35297
RightFoot  -4.07681 -0.12448 1.48622
RightToes  0.000482159 0.542163 -0.142577
Spine  7.83326 1.95869 4.97898
Spine1  0.579534 3.53369 -6.31237
HEad  2.33345 2.31387 -0.0269765
LeftShoulder1  0.564351 -0.760788 -5.34159
LeftArm  -32.8301 17.753 -5.40651
LeftForeArm  16.8895 -16.1051 -0.182298
LeftHand  -0.25398 0.0180481 5.50724
RightShoulder  0.760669 1.98705 6.16866
RightArm  -24.9124 -3.8005 -0.104405
RightForeArm  -8.92972 11.1128 3.81387
RightHand  -2.23971 6.61744 -21.803
LeftUpLeg  -0.630207 4.64523 0.916461
LeftLeg  5.21624 14.3768 -2.84639
LeftFoot  -5.73345 0.0898459 -0.956608
LeftToes  1.06247e-005 4.65855e-005 -8.18504e-006
647
root  0.844677 40.8691 -1.66531 -164.775 -85.0901 163.309
RightUpLeg  -0.154243 -10.0412 -8.2312
RightLeg  7.45516 -3.25557 3.2729
RightFoot  -4.17571 -0.0917053 0.977645
RightToes  0.000482159 0.542163 -0.142577
Spine  7.84531 1.58945 3.86045
Spine1  0.349558 2.88279 -5.21557
HEad  1.30121 2.00941 0.241438
LeftShoulder1  0.557829 -0.804054 -5.02432
LeftArm  -33.3924 16.6674 -4.67274
LeftForeArm  15.9289 -16.2181 -0.281644
LeftHand  -0.25398 0.0180481 5.50724
RightShoulder  0.648664 1.49803 5.175
RightArm  -25.4425 -3.144 -0.535768
RightForeArm  -9.75313 11.3045 3.8276
RightHand  -2.5593 7.54896 -23.0815
LeftUpLeg  -0.911108 4.58681 0.966229
LeftLeg  5.20844 13.1999 -2.87696
LeftFoot  -5.27227 0.0860505 -0.894242
LeftToes  1.06247e-005 4.65855e-005 -8.18504e-006
648
root  0.971437 40.8722 -1.78503 -159.419 -86.1973 157.9
RightUpLeg  -0.164101 -10.1168 -8.0953
RightLeg  7.6589 -4.43971 3.22173
RightFoot  -4.15897 -0.0749946 0.718305
RightToes  0.000482159 0.542163 -0.142577
Spine  7.78347 1.35197 3.13246
Spine1  -0.00126309 2.46254 -4.55255
HEad  0.825806 1.59277 0.65888
LeftShoulder1  0.558956 -0.978072 -4.49877
LeftArm  -31.4079 15.089 -4.61445
LeftForeArm  13.403 -15.0556 -0.137722
LeftHand  -0.25398 0.0180481 5.50724
RightShoulder  0.585363 1.14132 4.75765
RightArm  -25.5932 -2.80571 -0.783151
RightForeArm  -10.3081 11.0326 3.8078
RightHand  -2.82691 8.3391 -23.9989
LeftUpLeg  -1.10039 4.55159 1.11042
LeftLeg  5.02196 12.1096 -3.01739
LeftFoot  -4.74109 0.0839596 -0.86508
LeftToes  1.06247e-005 4.65855e-005 -8.18504e-006
649
root  1.06938 40.8787 -1.89391 -152.875 -87.0656 151.267
RightUpLeg  0.0270969 -10.2021 -8.02517
RightLeg  7.60364 -5.21632 3.31514
RightFoot  -4.19883 -0.0811533 0.813888
RightToes  0.000482159 0.542163 -0.142577
Spine  7.66719 1.21812 2.70965
Spine1  -0.210489 2.23022 -4.21022
HEad  0.525988 1.16295 1.07228
LeftShoulder1  0.58032 -1.33222 -3.97575
LeftArm  -28.2638 13.3541 -4.92909
LeftForeArm  11.8218 -12.718 0.123961
LeftHand  -0.25398 0.0180481 5.50724
RightShoulder  0.553227 0.926669 4.6246
RightArm  -25.5869 -2.75748 -0.622711
RightForeArm  -10.0664 10.3729 3.6858
RightHand  -2.94076 8.7585 -24.2183
LeftUpLeg  -1.14848 4.47376 1.28097
LeftLeg  4.74815 11.2834 -3.14368
LeftFoot  -4.2234 0.0819815 -0.843213
LeftToes  1.06247e-005 4.65855e-005 -8.18504e-006
650
root  1.14529 40.8855 -1.99468 -143.406 -87.7441 141.723
RightUpLeg  0.274743 -10.2422 -7.97561
RightLeg  7.39403 -5.87932 3.46035
RightFoot  -4.26629 -0.0798712 0.79399
RightToes  0.000482159 0.542163 -0.142577
Spine  7.48044 1.10807 2.18887
Spine1  -0.26829 1.98672 -3.64903
HEad  0.189447 0.883141 1.21984
LeftShoulder1  0.63478 -1.77789 -4.00335
LeftArm  -25.4199 11.8225 -5.01581
LeftForeArm  12.1596 -9.7491 0.137675
LeftHand  -0.25398 0.0180481 5.50724
RightShoulder  0.543839 0.886468 4.51306
RightArm  -25.4282 -2.76633 -0.0160092
RightForeArm  -8.80921 9.32501 3.45511
RightHand  -2.84479 8.60433 -23.7039
LeftUpLeg  -1.18502 4.36933 1.40209
LeftLeg  4.52202 10.6403 -3.19167
LeftFoot  -3.80255 0.0808904 -0.839509
LeftToes  1.06247e-005 4.65855e-005 -8.18504e-006
651
root  1.21227 40.8924 -2.08234 -131.756 -88.2032 130.012
RightUpLeg  0.43664 -10.2016 -7.86807
RightLeg  7.22724 -6.56986 3.52536
RightFoot  -4.2348 -0.0659923 0.578581
RightToes  0.000482159 0.542163 -0.142577
Spine  7.37015 0.984759 1.5754
Spine1  -0.347952 1.69694 -2.89991
HEad  -0.257403 0.869909 1.074
LeftShoulder1  0.695495 -2.1036 -4.4468
LeftArm  -23.2555 10.7218 -4.94499
LeftForeArm  12.3888 -6.78715 -0.122755
LeftHand  -0.25398 0.0180481 5.50724
RightShoulder  0.573471 1.07723 4.65779
RightArm  -24.7568 -2.62097 0.58083
RightForeArm  -6.82936 7.87093 3.23147
RightHand  -2.61587 8.05348 -22.7281
LeftUpLeg  -1.23024 4.3205 1.51019
LeftLeg  4.36998 10.1051 -3.21154
LeftFoot  -3.48927 0.0814165 -0.864148
LeftToes  1.06247e-005 4.65855e-005 -8.18504e-006
